<svg xmlns="http://www.w3.org/2000/svg" width="1.3rem" height="1.3rem" fill="currentColor" viewBox="0 0 553.000000 554.000000"
 preserveAspectRatio="xMidYMid meet">

<g transform="translate(0.000000,554.000000) scale(0.100000,-0.100000)"
fill="#ffffff" stroke="none">
<path d="M2385 5534 c-5 -1 -22 -5 -37 -8 -37 -8 -98 -63 -115 -104 -33 -79
-25 -651 11 -719 10 -21 34 -40 71 -58 64 -32 121 -29 176 8 57 39 73 70 81
160 11 132 9 538 -3 580 -11 40 -58 100 -93 119 -24 13 -77 26 -91 22z"/>
<path d="M3650 5527 c-51 -13 -95 -50 -119 -100 -20 -41 -21 -59 -21 -323 0
-320 7 -385 46 -426 79 -82 220 -69 282 25 l27 41 0 332 0 332 -31 38 c-59 73
-117 99 -184 81z"/>
<path d="M1015 5506 c-23 -14 -51 -43 -65 -68 l-25 -43 1 -315 c0 -362 3 -376
72 -424 36 -26 53 -31 100 -30 68 0 110 20 149 71 l28 36 3 306 c2 168 1 325
-3 348 -17 114 -160 179 -260 119z"/>
<path d="M635 5155 c-140 -21 -238 -63 -348 -152 -124 -100 -232 -257 -268
-393 -16 -59 -25 -2944 -10 -3273 8 -195 12 -230 34 -289 38 -105 85 -176 177
-268 132 -132 260 -197 410 -211 105 -9 2320 -24 2320 -15 0 3 -20 50 -44 103
-24 54 -55 135 -70 180 l-27 82 -1092 3 -1092 3 -53 29 c-66 37 -141 111 -174
173 l-26 48 -7 1258 -7 1257 2036 0 2036 0 0 -464 0 -463 86 -17 c48 -10 129
-31 182 -47 52 -16 97 -28 98 -26 2 2 0 428 -5 948 -10 1032 -7 994 -71 1119
-45 89 -78 135 -145 203 -126 127 -253 186 -477 222 l-37 6 -3 -234 -3 -233
-34 -67 c-40 -80 -101 -139 -179 -175 -49 -23 -70 -27 -152 -27 -84 0 -102 3
-157 29 -73 33 -138 98 -180 177 l-28 54 -3 238 -3 237 -275 0 -274 0 -1 -77
c0 -43 -4 -152 -8 -243 -5 -145 -9 -171 -30 -213 -52 -107 -180 -197 -290
-205 -164 -12 -307 64 -377 200 -27 52 -28 57 -35 293 -4 132 -8 241 -8 243
-1 1 -124 1 -273 0 l-273 -3 -5 -240 -5 -240 -29 -53 c-39 -70 -112 -137 -192
-174 -61 -29 -71 -30 -147 -25 -159 10 -268 80 -332 212 -29 60 -29 61 -33
285 -2 124 -7 228 -10 231 -4 3 -43 1 -87 -6z"/>
<path d="M1079 3311 c-58 -8 -92 -30 -127 -83 -26 -40 -27 -47 -27 -162 0
-145 7 -186 42 -226 52 -62 64 -65 324 -65 l235 0 42 27 c69 46 77 71 77 243
0 124 -3 156 -17 182 -26 47 -70 73 -141 84 -69 10 -337 10 -408 0z"/>
<path d="M2200 3314 c-60 -11 -71 -16 -104 -45 -56 -49 -69 -98 -64 -241 4
-130 14 -163 60 -204 43 -40 66 -45 231 -50 199 -8 323 5 366 36 58 41 66 68
66 235 0 175 -8 198 -81 241 -46 27 -49 27 -248 30 -110 1 -212 1 -226 -2z"/>
<path d="M3310 3314 c-60 -11 -71 -16 -104 -45 -56 -48 -69 -97 -64 -241 4
-149 18 -186 87 -226 l46 -27 230 0 230 0 46 27 c72 43 84 75 84 243 0 167
-12 200 -82 242 -44 26 -50 26 -247 29 -110 1 -212 1 -226 -2z"/>
<path d="M1061 2571 c-64 -17 -116 -70 -131 -137 -13 -52 -12 -179 0 -245 12
-61 32 -94 80 -126 32 -22 40 -23 274 -23 231 0 243 1 280 23 71 40 81 70 81
242 0 172 -8 197 -77 243 l-41 27 -216 2 c-119 1 -231 -2 -250 -6z"/>
<path d="M2172 2571 c-45 -8 -101 -56 -123 -105 -14 -32 -19 -65 -19 -146 0
-160 17 -208 90 -257 32 -22 41 -23 273 -23 239 0 240 0 284 25 70 42 78 66
78 240 0 124 -3 156 -17 182 -24 44 -67 71 -129 83 -55 11 -382 11 -437 1z"/>
<path d="M4125 2574 c-74 -8 -238 -45 -309 -71 -187 -67 -340 -165 -483 -310
-152 -154 -242 -299 -308 -496 -79 -239 -85 -517 -15 -777 29 -105 117 -280
191 -381 189 -254 426 -415 733 -497 95 -25 114 -27 311 -26 194 0 217 2 305
26 270 73 464 190 644 387 378 414 443 1027 159 1509 -225 383 -625 621 -1070
636 -65 2 -136 2 -158 0z m413 -406 c236 -81 426 -249 539 -473 141 -279 115
-658 -64 -921 -123 -180 -314 -320 -513 -373 -271 -73 -544 -31 -769 120 -184
123 -318 309 -381 530 -30 103 -38 296 -17 404 61 317 279 583 572 696 132 51
182 59 365 56 159 -4 169 -5 268 -39z"/>
<path d="M4155 1996 c-23 -14 -51 -43 -65 -68 -24 -42 -25 -50 -28 -273 -4
-250 7 -415 32 -464 9 -17 35 -41 59 -53 40 -22 55 -23 307 -26 345 -5 400 0
446 40 48 42 64 78 64 139 0 63 -27 115 -77 149 -33 23 -45 24 -247 31 -116 4
-212 8 -212 8 -1 1 -5 92 -9 203 -4 111 -11 213 -17 227 -36 97 -163 140 -253
87z"/>
<path d="M1050 1830 c-46 -11 -105 -76 -120 -131 -16 -58 -8 -252 13 -300 8
-20 32 -49 53 -65 l37 -29 244 -3 245 -3 44 26 c66 38 78 69 82 210 6 183 -13
240 -98 286 -29 16 -441 24 -500 9z"/>
<path d="M2156 1830 c-42 -13 -93 -67 -112 -116 -13 -34 -16 -69 -12 -166 4
-130 14 -162 60 -205 41 -39 71 -43 305 -43 209 0 230 2 269 21 26 12 53 36
66 57 21 34 23 48 23 187 0 172 -8 197 -77 243 l-42 27 -225 2 c-124 1 -239
-2 -255 -7z"/>
</g>
</svg>